<mxfile host="app.diagrams.net" modified="2022-06-04T01:38:48.820Z" agent="5.0 (Windows NT 10.0; Win64; x64) AppleWebKit/537.36 (KHTML, like Gecko) Chrome/101.0.4951.67 Safari/537.36" etag="3O0lhu3ktAV96cV3JwBO" version="19.0.0" type="github">
  <diagram id="rYi_qkEI-2-W18pGmhWD" name="Page-1">
    <mxGraphModel dx="755" dy="424" grid="1" gridSize="10" guides="1" tooltips="1" connect="1" arrows="1" fold="1" page="1" pageScale="1" pageWidth="827" pageHeight="1169" math="0" shadow="0">
      <root>
        <mxCell id="0" />
        <mxCell id="1" parent="0" />
        <mxCell id="W1UlGqBj58cS3HNudn_P-8" style="edgeStyle=orthogonalEdgeStyle;rounded=0;orthogonalLoop=1;jettySize=auto;html=1;exitX=1;exitY=0.5;exitDx=0;exitDy=0;exitPerimeter=0;" edge="1" parent="1" source="W1UlGqBj58cS3HNudn_P-6" target="W1UlGqBj58cS3HNudn_P-9">
          <mxGeometry relative="1" as="geometry">
            <mxPoint x="210" y="115" as="targetPoint" />
          </mxGeometry>
        </mxCell>
        <mxCell id="W1UlGqBj58cS3HNudn_P-6" value="Оптоволокно" style="verticalLabelPosition=bottom;shadow=0;dashed=0;align=center;html=1;verticalAlign=top;shape=mxgraph.electrical.transmission.optical_fiber;" vertex="1" parent="1">
          <mxGeometry x="30" y="189" width="130" height="80" as="geometry" />
        </mxCell>
        <mxCell id="W1UlGqBj58cS3HNudn_P-14" value="1" style="edgeStyle=orthogonalEdgeStyle;rounded=0;orthogonalLoop=1;jettySize=auto;html=1;exitX=0;exitY=1;exitDx=0;exitDy=0;entryX=0.5;entryY=0.07;entryDx=0;entryDy=0;entryPerimeter=0;fillColor=#e1d5e7;strokeColor=#9673a6;" edge="1" parent="1" source="W1UlGqBj58cS3HNudn_P-7" target="W1UlGqBj58cS3HNudn_P-22">
          <mxGeometry relative="1" as="geometry">
            <mxPoint x="102" y="554.0700000000002" as="targetPoint" />
          </mxGeometry>
        </mxCell>
        <mxCell id="W1UlGqBj58cS3HNudn_P-16" value="2" style="edgeStyle=orthogonalEdgeStyle;rounded=0;orthogonalLoop=1;jettySize=auto;html=1;exitX=0.25;exitY=1;exitDx=0;exitDy=0;fillColor=#f8cecc;strokeColor=#CC0000;" edge="1" parent="1" source="W1UlGqBj58cS3HNudn_P-7">
          <mxGeometry relative="1" as="geometry">
            <mxPoint x="275" y="540" as="targetPoint" />
          </mxGeometry>
        </mxCell>
        <mxCell id="W1UlGqBj58cS3HNudn_P-20" value="3" style="edgeStyle=orthogonalEdgeStyle;rounded=0;orthogonalLoop=1;jettySize=auto;html=1;entryX=0.62;entryY=-0.012;entryDx=0;entryDy=0;entryPerimeter=0;" edge="1" parent="1" source="W1UlGqBj58cS3HNudn_P-7" target="W1UlGqBj58cS3HNudn_P-21">
          <mxGeometry relative="1" as="geometry">
            <mxPoint x="450" y="566" as="targetPoint" />
          </mxGeometry>
        </mxCell>
        <mxCell id="W1UlGqBj58cS3HNudn_P-24" value="4" style="edgeStyle=orthogonalEdgeStyle;rounded=0;orthogonalLoop=1;jettySize=auto;html=1;entryX=0.5;entryY=0;entryDx=0;entryDy=0;entryPerimeter=0;exitX=0.75;exitY=1;exitDx=0;exitDy=0;" edge="1" parent="1" source="W1UlGqBj58cS3HNudn_P-7" target="W1UlGqBj58cS3HNudn_P-23">
          <mxGeometry relative="1" as="geometry">
            <Array as="points">
              <mxPoint x="365" y="510" />
              <mxPoint x="520" y="510" />
            </Array>
          </mxGeometry>
        </mxCell>
        <mxCell id="W1UlGqBj58cS3HNudn_P-7" value="Роутер Keenetic Giga II в режиме коммутатора" style="image;html=1;image=img/lib/clip_art/networking/Wireless_Router_N_128x128.png" vertex="1" parent="1">
          <mxGeometry x="230" y="350" width="180" height="130" as="geometry" />
        </mxCell>
        <mxCell id="W1UlGqBj58cS3HNudn_P-13" style="edgeStyle=orthogonalEdgeStyle;rounded=0;orthogonalLoop=1;jettySize=auto;html=1;entryX=1;entryY=0.25;entryDx=0;entryDy=0;exitX=1;exitY=0.75;exitDx=0;exitDy=0;" edge="1" parent="1" source="W1UlGqBj58cS3HNudn_P-9" target="W1UlGqBj58cS3HNudn_P-7">
          <mxGeometry relative="1" as="geometry" />
        </mxCell>
        <mxCell id="W1UlGqBj58cS3HNudn_P-9" value="&lt;br&gt;&lt;span style=&quot;color: rgb(0, 0, 0); font-family: Helvetica; font-size: 12px; font-style: normal; font-variant-ligatures: normal; font-variant-caps: normal; font-weight: 400; letter-spacing: normal; orphans: 2; text-align: center; text-indent: 0px; text-transform: none; widows: 2; word-spacing: 0px; -webkit-text-stroke-width: 0px; background-color: rgb(255, 255, 255); text-decoration-thickness: initial; text-decoration-style: initial; text-decoration-color: initial; float: none; display: inline !important;&quot;&gt;Роутер Keenetic AIR для WIFI&lt;/span&gt;" style="image;html=1;image=img/lib/clip_art/networking/Wireless_Router_128x128.png" vertex="1" parent="1">
          <mxGeometry x="220" y="159" width="180" height="140" as="geometry" />
        </mxCell>
        <mxCell id="W1UlGqBj58cS3HNudn_P-15" value="Касса" style="html=1;verticalLabelPosition=bottom;align=center;labelBackgroundColor=#ffffff;verticalAlign=top;strokeWidth=2;strokeColor=#0080F0;shadow=0;dashed=0;shape=mxgraph.ios7.icons.box;" vertex="1" parent="1">
          <mxGeometry x="230" y="625.93" width="90" height="74.07" as="geometry" />
        </mxCell>
        <mxCell id="W1UlGqBj58cS3HNudn_P-21" value="ТВ" style="points=[];aspect=fixed;html=1;align=center;shadow=0;dashed=0;image;image=img/lib/allied_telesis/computer_and_terminals/IP_TV.svg;" vertex="1" parent="1">
          <mxGeometry x="360" y="620" width="83.89" height="85.93" as="geometry" />
        </mxCell>
        <mxCell id="W1UlGqBj58cS3HNudn_P-22" value="Компьютер в подсобке" style="fontColor=#0066CC;verticalAlign=top;verticalLabelPosition=bottom;labelPosition=center;align=center;html=1;outlineConnect=0;fillColor=#CCCCCC;strokeColor=#6881B3;gradientColor=none;gradientDirection=north;strokeWidth=2;shape=mxgraph.networks.pc;" vertex="1" parent="1">
          <mxGeometry x="80" y="625.93" width="100" height="70" as="geometry" />
        </mxCell>
        <mxCell id="W1UlGqBj58cS3HNudn_P-23" value="? ПК где-то" style="fontColor=#0066CC;verticalAlign=top;verticalLabelPosition=bottom;labelPosition=center;align=center;html=1;outlineConnect=0;fillColor=#CCCCCC;strokeColor=#6881B3;gradientColor=none;gradientDirection=north;strokeWidth=2;shape=mxgraph.networks.desktop_pc;" vertex="1" parent="1">
          <mxGeometry x="500" y="626" width="40" height="74" as="geometry" />
        </mxCell>
        <mxCell id="W1UlGqBj58cS3HNudn_P-25" value="&lt;font style=&quot;font-size: 18px;&quot;&gt;Схема подключения&amp;nbsp; интернета в ресторане ЗАЛЕСЬЕ&lt;/font&gt;" style="text;html=1;align=center;verticalAlign=middle;resizable=0;points=[];autosize=1;strokeColor=none;fillColor=none;" vertex="1" parent="1">
          <mxGeometry x="60" y="70" width="480" height="20" as="geometry" />
        </mxCell>
        <mxCell id="W1UlGqBj58cS3HNudn_P-27" value="" style="edgeStyle=orthogonalEdgeStyle;rounded=0;orthogonalLoop=1;jettySize=auto;html=1;fontSize=18;" edge="1" parent="1" target="W1UlGqBj58cS3HNudn_P-15">
          <mxGeometry relative="1" as="geometry">
            <mxPoint x="275" y="600.2" as="sourcePoint" />
          </mxGeometry>
        </mxCell>
        <mxCell id="W1UlGqBj58cS3HNudn_P-30" value="" style="edgeStyle=orthogonalEdgeStyle;rounded=0;orthogonalLoop=1;jettySize=auto;html=1;fontSize=18;fillColor=#e1d5e7;strokeColor=#9673a6;" edge="1" parent="1" target="W1UlGqBj58cS3HNudn_P-15">
          <mxGeometry relative="1" as="geometry">
            <mxPoint x="275" y="600" as="sourcePoint" />
          </mxGeometry>
        </mxCell>
        <mxCell id="W1UlGqBj58cS3HNudn_P-29" value="" style="points=[];aspect=fixed;html=1;align=center;shadow=0;dashed=0;image;image=img/lib/allied_telesis/media_converters/Industrial_Media_Converter_POE.svg;fontSize=18;" vertex="1" parent="1">
          <mxGeometry x="260" y="540" width="30" height="57" as="geometry" />
        </mxCell>
      </root>
    </mxGraphModel>
  </diagram>
</mxfile>
